<svg xmlns="http://www.w3.org/2000/svg" xmlns:xlink="http://www.w3.org/1999/xlink" version="1.1" width="1000" height="1000" viewBox="0 0 1000 1000" xml:space="preserve">
<desc>Created with Fabric.js 3.5.0</desc>
<defs>
</defs>
<rect x="0" y="0" width="100%" height="100%" fill="rgba(255,255,255,0)"/>
<g transform="matrix(3.1322 0 0 3.1045 500 500)" id="164573">
<g style="" vector-effect="non-scaling-stroke">
		<g transform="matrix(0.1333 0 0 -0.1333 2.0424 -10.7536)">
<path style="stroke: none; stroke-width: 1; stroke-dasharray: none; stroke-linecap: butt; stroke-dashoffset: 0; stroke-linejoin: miter; stroke-miterlimit: 4; is-custom-font: none; font-file-url: none; fill: rgb(0,0,0); fill-rule: nonzero; opacity: 1;" transform=" translate(-2515.5842, -2580.3802)" d="M 2480 3663 c -64 -21 -82 -43 -153 -198 c -25 -55 -78 -167 -117 -250 c -40 -82 -80 -168 -90 -190 c -10 -22 -79 -170 -155 -330 c -76 -159 -150 -317 -165 -350 c -15 -33 -87 -186 -160 -340 c -73 -154 -145 -308 -161 -342 c -33 -70 -36 -112 -11 -142 c 34 -42 131 -37 160 9 c 6 11 52 104 101 207 c 49 104 111 235 139 293 c 89 187 144 303 192 405 c 26 55 71 150 100 210 c 76 160 287 609 322 685 l 30 64 l 19 -24 c 10 -14 19 -28 19 -31 c 0 -4 24 -58 54 -120 c 77 -162 353 -752 388 -828 c 16 -35 44 -96 63 -135 c 18 -39 94 -201 169 -361 c 165 -355 177 -377 207 -393 c 37 -20 100 -8 126 23 c 40 45 57 -1 -212 570 c -64 138 -130 277 -145 310 c -15 33 -108 231 -205 440 c -98 209 -188 403 -200 430 c -165 356 -172 368 -233 384 c -39 12 -58 12 -82 4 z" stroke-linecap="round"/>
</g>
		<g transform="matrix(0.1333 0 0 -0.1333 1.9801 -4.1236)">
<path style="stroke: none; stroke-width: 1; stroke-dasharray: none; stroke-linecap: butt; stroke-dashoffset: 0; stroke-linejoin: miter; stroke-miterlimit: 4; is-custom-font: none; font-file-url: none; fill: rgb(0,0,0); fill-rule: nonzero; opacity: 1;" transform=" translate(-2514.9345, -2530.8438)" d="M 2483 2858 c -18 -5 -39 -19 -47 -31 c -16 -25 -183 -380 -237 -505 c -24 -56 -24 -64 6 -96 c 18 -19 34 -26 63 -26 c 48 0 75 24 109 98 c 14 32 46 100 70 152 c 25 52 49 105 54 118 c 5 12 12 22 17 22 c 5 0 21 -28 37 -62 c 140 -316 148 -328 209 -328 c 32 0 48 6 66 25 c 30 32 25 63 -31 180 c -23 50 -75 162 -116 250 c -41 88 -82 168 -91 178 c -25 24 -71 35 -109 25 z" stroke-linecap="round"/>
</g>
		<g transform="matrix(0.1333 0 0 -0.1333 1.9779 99.3245)">
<path style="stroke: none; stroke-width: 1; stroke-dasharray: none; stroke-linecap: butt; stroke-dashoffset: 0; stroke-linejoin: miter; stroke-miterlimit: 4; is-custom-font: none; font-file-url: none; fill: rgb(0,0,0); fill-rule: nonzero; opacity: 1;" transform=" translate(-2515, -1755)" d="M 2055 1998 c -17 -13 -48 -64 -78 -127 c -27 -59 -67 -144 -88 -189 c -21 -46 -39 -97 -39 -113 c 0 -43 39 -79 86 -79 c 52 0 84 39 151 185 c 30 66 63 129 74 140 c 19 19 33 20 353 20 c 281 0 336 -2 351 -15 c 10 -8 30 -42 45 -75 c 89 -196 110 -232 140 -245 c 61 -25 130 10 130 67 c 0 38 -168 395 -201 426 l -29 27 l -434 0 c -431 0 -433 0 -461 -22 z" stroke-linecap="round"/>
</g>
</g>
</g>
</svg>